<?xml version="1.0" encoding="utf-8"?><svg xmlns="http://www.w3.org/2000/svg" xmlns:xlink="http://www.w3.org/1999/xlink"><symbol fill="none" viewBox="0 0 70 70" id="cube" xmlns="http://www.w3.org/2000/svg"><path opacity=".4" d="M64.167 28.438a2.203 2.203 0 01-2.187-2.188v-5.833c0-7.525-4.871-12.396-12.396-12.396H20.417c-7.525 0-12.396 4.87-12.396 12.396v5.833a2.203 2.203 0 01-2.187 2.188 2.203 2.203 0 01-2.188-2.188v-5.833c0-10.034 6.738-16.771 16.771-16.771h29.167c10.033 0 16.77 6.737 16.77 16.77v5.834a2.203 2.203 0 01-2.187 2.188zM49.584 66.354H20.417c-10.033 0-16.77-6.737-16.77-16.77V43.75c0-1.196.991-2.188 2.187-2.188 1.196 0 2.187.992 2.187 2.188v5.833c0 7.525 4.871 12.396 12.396 12.396h29.167c7.525 0 12.396-4.87 12.396-12.396V43.75c0-1.196.992-2.188 2.187-2.188 1.196 0 2.188.992 2.188 2.188v5.833c0 10.034-6.738 16.771-16.771 16.771z" fill="#fff"/><path d="M47.833 23.946l-10.967-5.921a3.963 3.963 0 00-3.704 0l-10.967 5.921c-.787.438-1.283 1.283-1.283 2.246 0 .962.496 1.808 1.283 2.246l10.967 5.92c.583.321 1.225.467 1.867.467.641 0 1.283-.146 1.866-.467l10.967-5.92c.788-.438 1.283-1.284 1.283-2.246-.029-.963-.525-1.808-1.312-2.246zM31.325 36.37l-10.209-5.103a2.528 2.528 0 00-2.45.116 2.47 2.47 0 00-1.195 2.13v9.654c0 1.662.933 3.179 2.42 3.908L30.1 52.18c.35.175.729.263 1.137.263.467 0 .905-.117 1.313-.38a2.47 2.47 0 001.196-2.129V40.28c0-1.662-.904-3.15-2.421-3.908zM51.304 31.383a2.528 2.528 0 00-2.45-.116L38.645 36.37c-1.487.758-2.42 2.246-2.42 3.908v9.654a2.47 2.47 0 001.195 2.13c.409.262.846.379 1.313.379.38 0 .758-.088 1.137-.263l10.209-5.104c1.487-.758 2.42-2.246 2.42-3.908v-9.654a2.47 2.47 0 00-1.195-2.13z" fill="#fff"/></symbol><symbol fill="none" viewBox="0 0 11 20" id="facebook" xmlns="http://www.w3.org/2000/svg"><path d="M9.12 3.32H11V.14A26.111 26.111 0 008.26 0C5.54 0 3.68 1.66 3.68 4.7v2.62H.61v3.56h3.07V20h3.68v-9.12h3.06l.46-3.56H7.36V5.05c0-1.05.28-1.73 1.76-1.73z" fill="#F5EFDB"/></symbol><symbol fill="none" viewBox="0 0 70 70" id="like" xmlns="http://www.w3.org/2000/svg"><path opacity=".4" d="M52.5 55.008h-2.217c-2.333 0-4.55.904-6.183 2.538l-4.988 4.929c-2.275 2.246-5.979 2.246-8.254 0l-4.987-4.93c-1.633-1.633-3.88-2.537-6.183-2.537H17.5c-4.842 0-8.75-3.879-8.75-8.662V14.525c0-4.783 3.908-8.662 8.75-8.662h35c4.842 0 8.75 3.879 8.75 8.662v31.82c0 4.755-3.908 8.663-8.75 8.663z" fill="#fff"/><path d="M48.359 27.913c-.554-.788-1.488-1.226-2.596-1.226h-5.688c-.379 0-.729-.145-.962-.437a1.393 1.393 0 01-.292-1.08l.7-4.55c.292-1.34-.612-2.887-1.954-3.324-1.254-.467-2.742.175-3.325 1.05l-5.658 8.4v-1.05c0-2.042-.875-2.888-3.034-2.888h-1.429c-2.158 0-3.033.846-3.033 2.888v13.942c0 2.041.875 2.887 3.033 2.887h1.43c2.041 0 2.916-.788 3.004-2.654l4.287 3.296c.583.583 1.896.904 2.83.904h5.395c1.867 0 3.733-1.4 4.142-3.121l3.412-10.384c.38-.933.292-1.895-.262-2.653z" fill="#fff"/></symbol><symbol fill="none" viewBox="0 0 18 18" id="mail" xmlns="http://www.w3.org/2000/svg"><path d="M12.75 2.625h-7.5C3 2.625 1.5 3.75 1.5 6.375v5.25c0 2.625 1.5 3.75 3.75 3.75h7.5c2.25 0 3.75-1.125 3.75-3.75v-5.25c0-2.625-1.5-3.75-3.75-3.75zm.352 4.567l-2.347 1.876C10.26 9.465 9.63 9.66 9 9.66c-.63 0-1.268-.195-1.755-.592L4.897 7.193a.577.577 0 01-.09-.795.56.56 0 01.788-.09l2.348 1.874c.57.458 1.537.458 2.107 0l2.348-1.875c.24-.195.6-.157.787.09.195.24.157.6-.083.795z" fill="#C4C4C4"/></symbol><symbol fill="none" viewBox="0 0 18 18" id="map" xmlns="http://www.w3.org/2000/svg"><path d="M5.722 2.678c.134-.074.277.039.277.192v10.15c0 .178-.121.328-.277.412l-1.763 1.005c-1.23.706-2.242.12-2.242-1.304V5.835c0-.472.337-1.057.757-1.297l3.248-1.86zM10.972 4.542a.5.5 0 01.278.448v9.589a.5.5 0 01-.717.45l-2.938-1.415a.5.5 0 01-.282-.45V3.535a.5.5 0 01.721-.449l2.938 1.455zM16.5 4.868v7.297c0 .473-.337 1.058-.758 1.298l-2.43 1.393a.5.5 0 01-.75-.434V4.82a.5.5 0 01.253-.434l1.443-.823c1.23-.705 2.242-.12 2.242 1.305z" fill="#C4C4C4"/></symbol><symbol fill="none" viewBox="0 0 70 70" id="route" xmlns="http://www.w3.org/2000/svg"><path opacity=".4" d="M25.9 13.417c-2.333-10.092-17.529-10.121-19.862 0-1.371 5.92 2.391 10.937 5.658 14.058 2.392 2.246 6.154 2.246 8.546 0 3.267-3.12 7-8.138 5.658-14.058zm-9.829 4.666a2.925 2.925 0 01-2.917-2.916c0-1.604 1.284-2.917 2.888-2.917h.03a2.907 2.907 0 012.916 2.917 2.907 2.907 0 01-2.917 2.916z" fill="#fff"/><path d="M18.988 15.167a2.907 2.907 0 01-2.917 2.916 2.925 2.925 0 01-2.917-2.916c0-1.604 1.284-2.917 2.888-2.917h.029a2.907 2.907 0 012.917 2.917z" fill="#fff"/><path opacity=".4" d="M63.905 48.417c-2.334-10.092-17.588-10.121-19.95 0-1.371 5.92 2.391 10.937 5.687 14.058 2.392 2.246 6.183 2.246 8.575 0 3.296-3.12 7.058-8.138 5.688-14.058zm-9.859 4.666a2.925 2.925 0 01-2.916-2.916c0-1.605 1.283-2.917 2.887-2.917h.03a2.925 2.925 0 012.916 2.917 2.925 2.925 0 01-2.917 2.916z" fill="#fff"/><path d="M56.962 50.167a2.925 2.925 0 01-2.916 2.916 2.925 2.925 0 01-2.917-2.916c0-1.605 1.283-2.917 2.887-2.917h.03a2.925 2.925 0 012.916 2.917zM35 57.604h-7.817c-3.383 0-6.329-2.041-7.496-5.191-1.196-3.15-.32-6.621 2.217-8.867l23.304-20.388c1.4-1.225 1.43-2.887 1.021-4.025-.438-1.137-1.546-2.362-3.413-2.362H35a2.203 2.203 0 01-2.188-2.188c0-1.196.992-2.187 2.188-2.187h7.816c3.384 0 6.33 2.041 7.496 5.191 1.196 3.15.321 6.621-2.216 8.867L24.792 46.842c-1.4 1.225-1.43 2.887-1.021 4.025.437 1.137 1.546 2.362 3.412 2.362H35c1.196 0 2.187.992 2.187 2.188A2.203 2.203 0 0135 57.604z" fill="#fff"/></symbol><symbol fill="none" viewBox="0 0 18 18" id="star" xmlns="http://www.w3.org/2000/svg"><path d="M10.297 2.632l1.32 2.64c.18.368.66.72 1.065.788l2.392.397c1.53.255 1.89 1.365.788 2.46l-1.86 1.86c-.315.316-.488.923-.39 1.358l.532 2.303c.42 1.822-.547 2.527-2.16 1.574l-2.242-1.327c-.405-.24-1.073-.24-1.485 0l-2.243 1.327c-1.605.953-2.58.24-2.16-1.575l.533-2.302c.097-.435-.075-1.043-.39-1.357l-1.86-1.86c-1.095-1.096-.743-2.206.787-2.46l2.393-.398c.397-.068.877-.42 1.057-.788l1.32-2.64c.72-1.432 1.89-1.432 2.603 0z" stroke="#C4C4C4" stroke-linecap="round" stroke-linejoin="round"/></symbol><symbol fill="none" viewBox="0 0 18 18" id="tel" xmlns="http://www.w3.org/2000/svg"><path d="M13.215 8.062a.578.578 0 01-.578-.577c0-.278-.277-.855-.742-1.358-.457-.487-.96-.772-1.38-.772a.578.578 0 010-1.155c.75 0 1.537.405 2.227 1.132.645.683 1.058 1.53 1.058 2.145a.586.586 0 01-.585.585zM15.923 8.063a.578.578 0 01-.578-.578 4.828 4.828 0 00-4.822-4.822.578.578 0 01-.578-.578c0-.315.255-.585.57-.585 3.3 0 5.985 2.685 5.985 5.985a.583.583 0 01-.577.577zM8.287 11.213L6.9 12.6a.754.754 0 01-1.058.008c-.082-.083-.164-.158-.247-.24a21.31 21.31 0 01-2.092-2.453c-.615-.855-1.11-1.71-1.47-2.557C1.68 6.502 1.5 5.684 1.5 4.905c0-.51.09-.998.27-1.448.18-.457.465-.877.862-1.252.48-.473 1.006-.705 1.56-.705.21 0 .42.045.608.135.195.09.368.225.503.42l1.74 2.453c.135.187.232.36.3.524.067.158.104.316.104.458 0 .18-.052.36-.157.532-.098.173-.24.353-.42.533l-.57.593a.401.401 0 00-.12.3c0 .06.008.112.022.172.023.06.045.105.06.15.136.248.368.57.698.96.338.39.697.787 1.087 1.185.075.075.158.15.233.225.3.292.308.772.008 1.072zM16.477 13.748c0 .21-.038.427-.113.637a3.095 3.095 0 01-.585.945 3.381 3.381 0 01-1.23.885c-.007 0-.015.008-.022.008-.443.18-.923.277-1.44.277-.765 0-1.583-.18-2.445-.547a13.174 13.174 0 01-2.58-1.486c-.293-.217-.585-.434-.863-.667l2.453-2.453c.21.158.397.278.555.36.037.015.082.038.135.06.06.023.12.03.187.03a.413.413 0 00.308-.127l.57-.563c.187-.187.367-.33.54-.42a.999.999 0 01.532-.157c.143 0 .293.03.458.098a2.9 2.9 0 01.525.292l2.482 1.762c.195.136.33.293.413.48.075.188.12.375.12.585z" fill="#C4C4C4"/></symbol><symbol fill="none" viewBox="0 0 70 70" id="truck" xmlns="http://www.w3.org/2000/svg"><path opacity=".4" d="M43.75 8.75V35c0 3.208-2.624 5.833-5.833 5.833H5.834V22.225c2.13 2.537 5.396 4.112 9.013 4.025 2.945-.058 5.6-1.196 7.583-3.092.904-.758 1.662-1.72 2.246-2.77a11.36 11.36 0 001.575-6.067 11.617 11.617 0 00-3.967-8.488h18.55a2.925 2.925 0 012.917 2.917z" fill="#fff"/><path d="M64.167 40.833v8.75a8.738 8.738 0 01-8.75 8.75h-2.916c0-3.208-2.625-5.833-5.834-5.833-3.208 0-5.833 2.625-5.833 5.833H29.167c0-3.208-2.625-5.833-5.833-5.833s-5.833 2.625-5.833 5.833h-2.917a8.738 8.738 0 01-8.75-8.75v-8.75h32.083c3.209 0 5.834-2.625 5.834-5.833V14.583h5.366c2.1 0 4.025 1.138 5.075 2.946l4.988 8.721h-3.763a2.925 2.925 0 00-2.916 2.917v8.75a2.925 2.925 0 002.916 2.916h8.75z" fill="#fff"/><path opacity=".4" d="M23.333 64.167a5.833 5.833 0 100-11.667 5.833 5.833 0 000 11.667zM46.667 64.167a5.833 5.833 0 100-11.667 5.833 5.833 0 000 11.667zM64.167 36.546v4.287h-8.75a2.925 2.925 0 01-2.917-2.916v-8.75a2.925 2.925 0 012.917-2.917h3.762l4.23 7.408c.495.875.758 1.867.758 2.888z" fill="#fff"/><path d="M22.284 5.833a11.604 11.604 0 00-7.962-2.916c-2.742.058-5.25 1.079-7.234 2.712a11.635 11.635 0 00-4.17 9.217c.058 2.188.7 4.23 1.837 5.95.32.496.67.992 1.08 1.429 2.128 2.537 5.395 4.112 9.012 4.025 2.946-.058 5.6-1.196 7.583-3.092.904-.758 1.663-1.72 2.246-2.77a11.359 11.359 0 001.575-6.067 11.617 11.617 0 00-3.967-8.488zm-1.692 7.35l-6.095 5.892a2.19 2.19 0 01-1.517.613 2.19 2.19 0 01-1.517-.613l-2.946-2.8a2.175 2.175 0 01-.058-3.092 2.175 2.175 0 013.092-.058l1.429 1.37 4.58-4.432a2.175 2.175 0 013.09.058c.847.846.817 2.217-.058 3.062z" fill="#fff"/></symbol></svg>