<svg width="70" height="70" viewBox="0 0 70 70" fill="none" xmlns="http://www.w3.org/2000/svg">
<path opacity="0.4" d="M64.1673 28.4375C62.9715 28.4375 61.9798 27.4458 61.9798 26.25V20.4167C61.9798 12.8917 57.109 8.02084 49.584 8.02084H20.4173C12.8923 8.02084 8.02148 12.8917 8.02148 20.4167V26.25C8.02148 27.4458 7.02982 28.4375 5.83398 28.4375C4.63815 28.4375 3.64648 27.4458 3.64648 26.25V20.4167C3.64648 10.3833 10.384 3.64584 20.4173 3.64584H49.584C59.6173 3.64584 66.3548 10.3833 66.3548 20.4167V26.25C66.3548 27.4458 65.3631 28.4375 64.1673 28.4375Z" fill="white"/>
<path opacity="0.4" d="M49.584 66.3542H20.4173C10.384 66.3542 3.64648 59.6167 3.64648 49.5833V43.75C3.64648 42.5542 4.63815 41.5625 5.83398 41.5625C7.02982 41.5625 8.02148 42.5542 8.02148 43.75V49.5833C8.02148 57.1083 12.8923 61.9792 20.4173 61.9792H49.584C57.109 61.9792 61.9798 57.1083 61.9798 49.5833V43.75C61.9798 42.5542 62.9715 41.5625 64.1673 41.5625C65.3631 41.5625 66.3548 42.5542 66.3548 43.75V49.5833C66.3548 59.6167 59.6173 66.3542 49.584 66.3542Z" fill="white"/>
<path d="M47.8329 23.946L36.8663 18.025C35.6996 17.4125 34.3288 17.4125 33.1621 18.025L22.1954 23.946C21.4079 24.3835 20.9121 25.2292 20.9121 26.1917C20.9121 27.1542 21.4079 28.0001 22.1954 28.4376L33.1621 34.3585C33.7454 34.6793 34.3871 34.8251 35.0288 34.8251C35.6704 34.8251 36.3121 34.6793 36.8954 34.3585L47.8621 28.4376C48.6496 28.0001 49.1455 27.1542 49.1455 26.1917C49.1163 25.2292 48.6204 24.3835 47.8329 23.946Z" fill="white"/>
<path d="M31.3249 36.3708L21.1165 31.2666C20.329 30.8874 19.4248 30.9167 18.6665 31.3834C17.9082 31.85 17.4707 32.6375 17.4707 33.5125V43.1666C17.4707 44.8291 18.404 46.3459 19.8915 47.0751L30.0999 52.1792C30.4499 52.3542 30.829 52.4416 31.2374 52.4416C31.704 52.4416 32.1415 52.3249 32.5499 52.0624C33.3082 51.5958 33.7457 50.8083 33.7457 49.9333V40.2792C33.7457 38.6167 32.8415 37.1291 31.3249 36.3708Z" fill="white"/>
<path d="M51.3038 31.3834C50.5454 30.9167 49.6413 30.8874 48.8538 31.2666L38.6454 36.3708C37.1579 37.1291 36.2246 38.6167 36.2246 40.2792V49.9333C36.2246 50.8083 36.6621 51.5958 37.4205 52.0624C37.8288 52.3249 38.2663 52.4416 38.7329 52.4416C39.1121 52.4416 39.4913 52.3542 39.8704 52.1792L50.0788 47.0751C51.5663 46.3167 52.4996 44.8291 52.4996 43.1666V33.5125C52.4996 32.6375 52.0621 31.85 51.3038 31.3834Z" fill="white"/>
</svg>
