<svg width="70" height="70" viewBox="0 0 70 70" fill="none" xmlns="http://www.w3.org/2000/svg">
<path opacity="0.4" d="M52.5 55.0083H50.2834C47.95 55.0083 45.7333 55.9124 44.1 57.5458L39.1125 62.4749C36.8375 64.7208 33.1333 64.7208 30.8583 62.4749L25.8708 57.5458C24.2375 55.9124 21.9917 55.0083 19.6875 55.0083H17.5C12.6583 55.0083 8.75 51.1292 8.75 46.3459V14.5249C8.75 9.7416 12.6583 5.86252 17.5 5.86252H52.5C57.3417 5.86252 61.25 9.7416 61.25 14.5249V46.3459C61.25 51.1 57.3417 55.0083 52.5 55.0083Z" fill="white"/>
<path d="M48.3587 27.9125C47.8046 27.125 46.8712 26.6875 45.7629 26.6875H40.0754C39.6963 26.6875 39.3462 26.5416 39.1129 26.2499C38.8796 25.9583 38.7629 25.5791 38.8212 25.1708L39.5212 20.6208C39.8129 19.2791 38.9088 17.7332 37.5671 17.2957C36.3129 16.8291 34.8254 17.4707 34.2421 18.3457L28.5837 26.7457V25.6958C28.5837 23.6541 27.7087 22.8083 25.5504 22.8083H24.1212C21.9629 22.8083 21.0879 23.6541 21.0879 25.6958V39.6375C21.0879 41.6792 21.9629 42.525 24.1212 42.525H25.5504C27.5921 42.525 28.4671 41.7374 28.5546 39.8707L32.8421 43.1666C33.4254 43.7499 34.7379 44.0707 35.6712 44.0707H41.0671C42.9337 44.0707 44.8004 42.6707 45.2087 40.9499L48.6212 30.5665C49.0004 29.6332 48.9129 28.6708 48.3587 27.9125Z" fill="white"/>
</svg>
