<svg width="18" height="18" viewBox="0 0 18 18" fill="none" xmlns="http://www.w3.org/2000/svg">
<path d="M5.7218 2.67751C5.85633 2.60413 5.9993 2.71702 5.9993 2.87027V13.0199C5.9993 13.1976 5.87772 13.3475 5.7218 13.4325L3.9593 14.4375C2.7293 15.1425 1.7168 14.5575 1.7168 13.1325V5.83501C1.7168 5.36251 2.0543 4.77751 2.4743 4.53751L5.7218 2.67751Z" fill="#C4C4C4"/>
<path d="M10.9719 4.54225C11.1422 4.62661 11.25 4.80024 11.25 4.99032V14.5786C11.25 14.9471 10.865 15.189 10.533 15.0291L7.59548 13.6138C7.42248 13.5305 7.3125 13.3554 7.3125 13.1634V3.53556C7.3125 3.1647 7.70206 2.92291 8.0344 3.08749L10.9719 4.54225Z" fill="#C4C4C4"/>
<path d="M16.5 4.86755V12.165C16.5 12.6375 16.1625 13.2225 15.7425 13.4625L13.3111 14.856C12.9778 15.047 12.5625 14.8064 12.5625 14.4222V4.82037C12.5625 4.64086 12.6587 4.47512 12.8146 4.38613L14.2575 3.56255C15.4875 2.85755 16.5 3.44255 16.5 4.86755Z" fill="#C4C4C4"/>
</svg>
