<svg width="70" height="70" viewBox="0 0 70 70" fill="none" xmlns="http://www.w3.org/2000/svg">
<path opacity="0.4" d="M25.9002 13.4167C23.5669 3.325 8.37107 3.29583 6.03774 13.4167C4.6669 19.3375 8.4294 24.3542 11.6961 27.475C14.0877 29.7208 17.8502 29.7208 20.2419 27.475C23.5086 24.3542 27.2419 19.3375 25.9002 13.4167ZM16.0711 18.0833C14.4669 18.0833 13.1544 16.7708 13.1544 15.1667C13.1544 13.5625 14.4377 12.25 16.0419 12.25H16.0711C17.7044 12.25 18.9877 13.5625 18.9877 15.1667C18.9877 16.7708 17.7044 18.0833 16.0711 18.0833Z" fill="white"/>
<path d="M18.9876 15.1667C18.9876 16.7708 17.7043 18.0833 16.071 18.0833C14.4668 18.0833 13.1543 16.7708 13.1543 15.1667C13.1543 13.5625 14.4376 12.25 16.0418 12.25H16.071C17.7043 12.25 18.9876 13.5625 18.9876 15.1667Z" fill="white"/>
<path opacity="0.4" d="M63.9046 48.4167C61.5713 38.325 46.3171 38.2958 43.9546 48.4167C42.5838 54.3375 46.3463 59.3542 49.6421 62.475C52.0338 64.7208 55.8255 64.7208 58.2171 62.475C61.513 59.3542 65.2755 54.3375 63.9046 48.4167ZM54.0463 53.0833C52.4421 53.0833 51.1296 51.7708 51.1296 50.1667C51.1296 48.5625 52.413 47.25 54.0171 47.25H54.0463C55.6505 47.25 56.963 48.5625 56.963 50.1667C56.963 51.7708 55.6505 53.0833 54.0463 53.0833Z" fill="white"/>
<path d="M56.9622 50.1667C56.9622 51.7708 55.6497 53.0833 54.0456 53.0833C52.4414 53.0833 51.1289 51.7708 51.1289 50.1667C51.1289 48.5625 52.4122 47.25 54.0164 47.25H54.0456C55.6497 47.25 56.9622 48.5625 56.9622 50.1667Z" fill="white"/>
<path d="M34.9999 57.6042H27.1832C23.7999 57.6042 20.854 55.5625 19.6874 52.4125C18.4915 49.2625 19.3665 45.7917 21.904 43.5458L45.2082 23.1583C46.6082 21.9333 46.6374 20.2708 46.229 19.1333C45.7915 17.9958 44.6832 16.7708 42.8165 16.7708H34.9999C33.804 16.7708 32.8124 15.7792 32.8124 14.5833C32.8124 13.3875 33.804 12.3958 34.9999 12.3958H42.8165C46.1999 12.3958 49.1457 14.4375 50.3124 17.5875C51.5082 20.7375 50.6332 24.2083 48.0957 26.4542L24.7915 46.8417C23.3915 48.0667 23.3624 49.7292 23.7707 50.8667C24.2082 52.0042 25.3165 53.2292 27.1832 53.2292H34.9999C36.1957 53.2292 37.1874 54.2208 37.1874 55.4167C37.1874 56.6125 36.1957 57.6042 34.9999 57.6042Z" fill="white"/>
</svg>
