<svg width="70" height="70" viewBox="0 0 70 70" fill="none" xmlns="http://www.w3.org/2000/svg">
<path opacity="0.4" d="M43.7507 8.75001V35C43.7507 38.2083 41.1257 40.8333 37.9173 40.8333H5.83398V22.225C7.96315 24.7625 11.2299 26.3375 14.8466 26.25C17.7924 26.1917 20.4465 25.0542 22.4298 23.1584C23.334 22.4 24.0924 21.4375 24.6757 20.3875C25.7257 18.6083 26.309 16.5083 26.2507 14.3208C26.1632 10.9083 24.6465 7.90418 22.284 5.83334H40.834C42.4382 5.83334 43.7507 7.14584 43.7507 8.75001Z" fill="white"/>
<path d="M64.1673 40.8333V49.5833C64.1673 54.425 60.259 58.3333 55.4173 58.3333H52.5006C52.5006 55.125 49.8756 52.5 46.6673 52.5C43.459 52.5 40.834 55.125 40.834 58.3333H29.1673C29.1673 55.125 26.5423 52.5 23.334 52.5C20.1257 52.5 17.5007 55.125 17.5007 58.3333H14.584C9.74232 58.3333 5.83398 54.425 5.83398 49.5833V40.8333H37.9173C41.1256 40.8333 43.7506 38.2083 43.7506 35V14.5833H49.1174C51.2174 14.5833 53.1424 15.7209 54.1924 17.5292L59.1798 26.25H55.4173C53.8131 26.25 52.5006 27.5625 52.5006 29.1667V37.9167C52.5006 39.5208 53.8131 40.8333 55.4173 40.8333H64.1673Z" fill="white"/>
<path opacity="0.4" d="M23.3333 64.1667C26.555 64.1667 29.1667 61.555 29.1667 58.3333C29.1667 55.1117 26.555 52.5 23.3333 52.5C20.1117 52.5 17.5 55.1117 17.5 58.3333C17.5 61.555 20.1117 64.1667 23.3333 64.1667Z" fill="white"/>
<path opacity="0.4" d="M46.6673 64.1667C49.889 64.1667 52.5007 61.555 52.5007 58.3333C52.5007 55.1117 49.889 52.5 46.6673 52.5C43.4457 52.5 40.834 55.1117 40.834 58.3333C40.834 61.555 43.4457 64.1667 46.6673 64.1667Z" fill="white"/>
<path opacity="0.4" d="M64.1667 36.5459V40.8333H55.4167C53.8125 40.8333 52.5 39.5208 52.5 37.9167V29.1667C52.5 27.5625 53.8125 26.25 55.4167 26.25H59.1791L63.4083 33.6583C63.9041 34.5333 64.1667 35.5251 64.1667 36.5459Z" fill="white"/>
<path d="M22.2841 5.83338C20.1841 3.96671 17.384 2.85838 14.3215 2.91671C11.5798 2.97505 9.07156 3.99586 7.08822 5.62919C4.46322 7.81669 2.82991 11.171 2.91741 14.846C2.97574 17.0335 3.61743 19.0751 4.75493 20.7959C5.07576 21.2917 5.42574 21.7875 5.83408 22.225C7.96325 24.7625 11.23 26.3375 14.8467 26.25C17.7925 26.1917 20.4466 25.0542 22.4299 23.1584C23.3341 22.4001 24.0925 21.4375 24.6758 20.3875C25.7258 18.6084 26.3091 16.5083 26.2507 14.3208C26.1632 10.9083 24.6466 7.90421 22.2841 5.83338ZM20.5924 13.1834L14.4965 19.075C14.059 19.4833 13.5341 19.6875 12.9799 19.6875C12.4258 19.6875 11.9007 19.4833 11.4632 19.075L8.51736 16.2751C7.64236 15.4293 7.61332 14.0584 8.45915 13.1834C9.30498 12.3084 10.6758 12.2792 11.5508 13.125L12.9799 14.4958L17.5591 10.0626C18.4341 9.21675 19.805 9.2458 20.6508 10.1208C21.4966 10.9666 21.4674 12.3376 20.5924 13.1834Z" fill="white"/>
</svg>
