<?xml version="1.0" encoding="utf-8"?><svg xmlns="http://www.w3.org/2000/svg" xmlns:xlink="http://www.w3.org/1999/xlink"><symbol viewBox="0 0 24 24" id="arrow-left" xmlns="http://www.w3.org/2000/svg"><path d="M15 18l-6-6 6-6"/></symbol><symbol viewBox="0 0 24 24" id="arrow-right" xmlns="http://www.w3.org/2000/svg"><path d="M9 18l6-6-6-6"/></symbol><symbol viewBox="0 0 20 20" id="cart" xmlns="http://www.w3.org/2000/svg"><path d="M16.034 4.65H15.7l-2.816-2.817a.589.589 0 00-.825 0 .589.589 0 000 .825L14.05 4.65h-8.1l1.992-1.992a.589.589 0 000-.825.589.589 0 00-.825 0L4.309 4.65h-.334c-.75 0-2.308 0-2.308 2.133 0 .809.167 1.342.517 1.692.2.208.441.317.7.375.241.058.5.067.75.067h12.733c.258 0 .5-.017.733-.067.7-.167 1.234-.667 1.234-2.067 0-2.133-1.559-2.133-2.3-2.133zM15.875 10H4.058a.832.832 0 00-.825.967l.7 4.283c.233 1.433.858 3.083 3.633 3.083h4.675c2.809 0 3.309-1.408 3.609-2.983l.841-4.358a.83.83 0 00-.816-.992zM8.84 15.375a.578.578 0 11-1.158 0v-2.75c0-.317.258-.583.583-.583.317 0 .575.266.575.583v2.75zm3.567 0a.58.58 0 01-.583.583.585.585 0 01-.584-.583v-2.75a.59.59 0 01.584-.583c.325 0 .583.266.583.583v2.75z"/></symbol><symbol viewBox="0 0 19 20" id="catalog-icon" xmlns="http://www.w3.org/2000/svg"><path d="M2.375 4.063h14.25M2.375 8.02h14.25M2.375 11.98h14.25M2.375 15.938h14.25"/></symbol><symbol viewBox="0 0 20 20" id="instagram" xmlns="http://www.w3.org/2000/svg"><path d="M15.34 3.46a1.2 1.2 0 100 2.4 1.2 1.2 0 000-2.4zm4.6 2.42a7.588 7.588 0 00-.46-2.43 4.94 4.94 0 00-1.16-1.77A4.7 4.7 0 0016.55.53a7.3 7.3 0 00-2.43-.47C13.06 0 12.72 0 10 0S6.94 0 5.88.06a7.3 7.3 0 00-2.43.47 4.78 4.78 0 00-1.77 1.15A4.7 4.7 0 00.53 3.45a7.3 7.3 0 00-.47 2.43C0 6.94 0 7.28 0 10s0 3.06.06 4.12a7.3 7.3 0 00.47 2.43 4.7 4.7 0 001.15 1.77 4.78 4.78 0 001.77 1.15 7.3 7.3 0 002.43.47C6.94 20 7.28 20 10 20s3.06 0 4.12-.06a7.3 7.3 0 002.43-.47 4.7 4.7 0 001.77-1.15 4.85 4.85 0 001.16-1.77c.285-.78.44-1.6.46-2.43 0-1.06.06-1.4.06-4.12s0-3.06-.06-4.12zM18.14 14a5.61 5.61 0 01-.34 1.86 3.06 3.06 0 01-.75 1.15c-.324.33-.717.586-1.15.75a5.61 5.61 0 01-1.86.34c-1 .05-1.37.06-4 .06s-3 0-4-.06a5.73 5.73 0 01-1.94-.3 3.27 3.27 0 01-1.1-.75 3 3 0 01-.74-1.15 5.54 5.54 0 01-.4-1.9c0-1-.06-1.37-.06-4s0-3 .06-4a5.54 5.54 0 01.35-1.9A3 3 0 013 3a3.14 3.14 0 011.1-.8A5.73 5.73 0 016 1.86c1 0 1.37-.06 4-.06s3 0 4 .06a5.61 5.61 0 011.86.34 3.06 3.06 0 011.19.8c.328.307.584.683.75 1.1.222.609.337 1.252.34 1.9.05 1 .06 1.37.06 4s-.01 3-.06 4zM10 4.87A5.13 5.13 0 1015.14 10 5.12 5.12 0 0010 4.87zm0 8.46a3.33 3.33 0 110-6.66 3.33 3.33 0 010 6.66z"/></symbol><symbol viewBox="0 0 20 20" id="profile" xmlns="http://www.w3.org/2000/svg"><path d="M16.259 4.875l-4.95-2.858a2.636 2.636 0 00-2.625 0L3.742 4.875A2.625 2.625 0 002.434 7.15v5.7c0 .933.5 1.8 1.308 2.275l4.95 2.858a2.636 2.636 0 002.625 0l4.95-2.858a2.625 2.625 0 001.308-2.275v-5.7a2.66 2.66 0 00-1.316-2.275zM10 6.117c1.075 0 1.942.866 1.942 1.941A1.938 1.938 0 0110 10 1.938 1.938 0 018.06 8.058c0-1.066.866-1.941 1.941-1.941zm2.234 7.766H7.767a.837.837 0 01-.692-1.308c.567-.842 1.667-1.408 2.925-1.408 1.259 0 2.359.566 2.925 1.408a.84.84 0 01-.691 1.308z"/></symbol><symbol viewBox="0 0 20 20" id="search-icon" xmlns="http://www.w3.org/2000/svg"><path d="M9.167 15.833a6.667 6.667 0 100-13.333 6.667 6.667 0 000 13.333zM17.5 17.5l-3.625-3.625"/></symbol><symbol viewBox="0 0 18 18" id="star" xmlns="http://www.w3.org/2000/svg"><path d="M10.297 2.632l1.32 2.64c.18.368.66.72 1.065.788l2.392.397c1.53.255 1.89 1.365.788 2.46l-1.86 1.86c-.315.316-.488.923-.39 1.358l.532 2.303c.42 1.822-.547 2.527-2.16 1.574l-2.242-1.327c-.405-.24-1.073-.24-1.485 0l-2.243 1.327c-1.605.953-2.58.24-2.16-1.575l.533-2.302c.097-.435-.075-1.043-.39-1.357l-1.86-1.86c-1.095-1.096-.743-2.206.787-2.46l2.393-.398c.397-.068.877-.42 1.057-.788l1.32-2.64c.72-1.432 1.89-1.432 2.603 0z"/></symbol></svg>